HIERARCHY
ROOT root
{
	OFFSET 0.000000 0.000000 0.000000
	CHANNELS 6 Xposition Yposition Zposition Zrotation Yrotation Xrotation
	JOINT lhip
	{
		OFFSET 0.058581 -0.082280 -0.017664
		CHANNELS 3 Zrotation Yrotation Xrotation
		JOINT lknee
		{
			OFFSET 0.043451 -0.386469 0.008037
			CHANNELS 3 Zrotation Yrotation Xrotation
			JOINT lankle
			{
				OFFSET -0.014790 -0.426874 -0.037428
				CHANNELS 3 Zrotation Yrotation Xrotation
				JOINT ltoe
				{
					OFFSET 0.041054 -0.060286 0.122042
					CHANNELS 3 Zrotation Yrotation Xrotation
					End Site
					{
						OFFSET 0.000000 0.000000 0.000000
					}
				}
			}
		}
	}
	JOINT rhip
	{
		OFFSET -0.060310 -0.090513 -0.013543
		CHANNELS 3 Zrotation Yrotation Xrotation
		JOINT rknee
		{
			OFFSET -0.043257 -0.383688 -0.004843
			CHANNELS 3 Zrotation Yrotation Xrotation
			JOINT rankle
			{
				OFFSET 0.019056 -0.420046 -0.034562
				CHANNELS 3 Zrotation Yrotation Xrotation
				JOINT rtoe
				{
					OFFSET -0.034840 -0.062106 0.130323
					CHANNELS 3 Zrotation Yrotation Xrotation
					End Site
					{
						OFFSET 0.000000 0.000000 0.000000
					}
				}
			}
		}
	}
	JOINT lowerback
	{
		OFFSET 0.004439 0.124404 -0.038385
		CHANNELS 3 Zrotation Yrotation Xrotation
		JOINT upperback
		{
			OFFSET 0.004488 0.137956 0.026820
			CHANNELS 3 Zrotation Yrotation Xrotation
			JOINT chest
			{
				OFFSET -0.002265 0.056032 0.002855
				CHANNELS 3 Zrotation Yrotation Xrotation
				JOINT lowerneck
				{
					OFFSET -0.013390 0.211636 -0.033468
					CHANNELS 3 Zrotation Yrotation Xrotation
					JOINT upperneck
					{
						OFFSET 0.010113 0.088937 0.050410
						CHANNELS 3 Zrotation Yrotation Xrotation
						End Site
						{
							OFFSET 0.000000 0.000000 0.000000
						}
					}
				}
				JOINT lclavicle
				{
					OFFSET 0.071702 0.114000 -0.018898
					CHANNELS 3 Zrotation Yrotation Xrotation
					JOINT lshoulder
					{
						OFFSET 0.122921 0.045205 -0.019046
						CHANNELS 3 Zrotation Yrotation Xrotation
						JOINT lelbow
						{
							OFFSET 0.255332 -0.015649 -0.022946
							CHANNELS 3 Zrotation Yrotation Xrotation
							JOINT lwrist
							{
								OFFSET 0.265709 0.012698 -0.007375
								CHANNELS 3 Zrotation Yrotation Xrotation
								End Site
								{
									OFFSET 0.000000 0.000000 0.000000
								}
							}
						}
					}
				}
				JOINT rclavicle
				{
					OFFSET -0.082954 0.112472 -0.023707
					CHANNELS 3 Zrotation Yrotation Xrotation
					JOINT rshoulder
					{
						OFFSET -0.113228 0.046853 -0.008472
						CHANNELS 3 Zrotation Yrotation Xrotation
						JOINT relbow
						{
							OFFSET -0.260127 -0.014369 -0.031269
							CHANNELS 3 Zrotation Yrotation Xrotation
							JOINT rwrist
							{
								OFFSET -0.269108 0.006794 -0.006027
								CHANNELS 3 Zrotation Yrotation Xrotation
								End Site
								{
									OFFSET 0.000000 0.000000 0.000000
								}
							}
						}
					}
				}
			}
		}
	}
}
MOTION
Frames: 8
Frame Time: 0.033333
1.111532 0.641556 0.398486 -87.678087 10.480052 111.184767 21.074159 29.229845 -105.085007 -5.602589 19.232064 135.575907 8.574283 2.764816 -62.303123 0.000000 -0.000000 0.000000 -27.244519 -48.658460 -89.224329 -11.314353 -25.716325 147.224609 -6.985061 21.085019 -50.708205 0.000000 -0.000000 0.000000 20.438298 -11.824140 38.443414 4.302811 2.354234 -13.252921 2.286734 3.128633 6.039321 -4.095486 18.274340 -8.283817 -7.980959 -6.222788 -12.699146 -7.987212 -28.345631 -2.662980 -80.163861 -23.775366 23.652327 63.979456 -58.575192 -68.207630 51.736862 -33.367218 -94.738538 14.805734 44.448682 7.314921 30.191894 34.130609 -9.107170 -25.290645 57.936082 -19.266407 -11.153312 19.834971 -28.413223 
1.114581 0.643390 0.409703 -87.038871 10.266292 112.892985 20.834656 28.472609 -105.454621 -5.360962 19.190759 133.548940 8.531149 3.397522 -61.961531 0.000000 -0.000000 0.000000 -26.330297 -48.262156 -89.727360 -12.181623 -26.455031 146.182492 -6.901489 20.463311 -50.423366 0.000000 -0.000000 0.000000 20.326263 -11.525771 37.669902 4.328964 2.263587 -13.448391 2.390734 3.097978 5.859280 -4.494864 18.677483 -10.077032 -7.904371 -5.341007 -13.281591 -7.554853 -28.342442 -2.720156 -80.320355 -23.349319 23.674601 65.535539 -59.085056 -69.120796 51.517184 -31.600395 -92.368805 14.462361 44.179079 7.112242 30.752487 34.122212 -9.023330 -27.547100 59.461289 -21.437762 -13.241280 18.979194 -28.786089 
1.117173 0.645939 0.423200 -86.582385 10.048840 114.336704 20.660730 27.716565 -105.481661 -5.377093 18.950761 131.236275 8.302299 3.997518 -61.325166 0.000000 -0.000000 0.000000 -25.072124 -47.566708 -90.213261 -12.643921 -27.283834 144.440386 -6.746973 19.524339 -49.788925 0.000000 -0.000000 0.000000 20.168726 -11.186482 37.323013 4.164707 2.149947 -13.800887 2.456782 3.134098 5.614428 -5.261257 18.873059 -12.053531 -7.412174 -4.216236 -14.203134 -7.926674 -28.902467 -2.225362 -79.696483 -23.281199 22.998438 66.251824 -59.571743 -69.612561 50.630465 -30.215340 -89.342154 14.820516 44.228897 7.891173 30.327894 34.015218 -10.474071 -28.705309 60.846514 -23.046908 -14.674048 18.286195 -27.798758 
1.119914 0.648399 0.438924 -86.288759 9.761180 115.906685 20.346005 26.969994 -105.394929 -5.374246 18.740156 128.599352 8.064329 4.704633 -60.545943 0.000000 -0.000000 0.000000 -23.607464 -46.585657 -91.007098 -13.171652 -28.217416 142.381672 -6.657885 18.306789 -48.978944 0.000000 -0.000000 0.000000 19.830076 -10.706224 36.656620 3.903260 2.083592 -13.962762 2.458940 3.227317 5.180791 -6.024091 19.074558 -14.394721 -6.888389 -2.909952 -14.811014 -8.578529 -29.437796 -1.779060 -78.914347 -23.165933 22.408474 65.905226 -59.772213 -69.054525 49.363307 -28.612572 -85.806990 15.409521 44.152105 8.728642 29.914138 33.915986 -11.730758 -29.449775 61.683350 -24.506624 -16.314686 17.658273 -27.203942 
1.122425 0.650835 0.456361 -86.197482 9.429724 117.498547 19.977758 26.357724 -105.049261 -5.262686 18.546293 125.825512 7.817818 5.359094 -59.761465 0.000000 -0.000000 0.000000 -22.063165 -45.341580 -91.918321 -13.634323 -29.156552 140.025796 -6.559722 17.020317 -48.099521 0.000000 -0.000000 0.000000 19.291653 -10.101228 35.704172 3.620373 2.026449 -13.996253 2.450340 3.323567 4.635893 -6.843473 19.387080 -16.846517 -6.383368 -1.586525 -15.265950 -9.508533 -29.728986 -1.256102 -78.124736 -22.929163 21.827315 65.002645 -59.939521 -68.427605 47.582658 -27.071445 -81.422279 16.407832 43.859486 9.826349 29.701253 33.800974 -12.768233 -30.254187 62.392366 -26.408603 -17.786753 17.004487 -26.241034 
1.124085 0.653430 0.474949 -86.413958 9.114324 118.772141 19.607991 26.046676 -104.279397 -5.330963 18.352345 122.960231 7.495888 5.874724 -58.920729 0.000000 -0.000000 0.000000 -20.482784 -43.824016 -92.696917 -13.711730 -30.129687 137.114251 -6.498825 15.545801 -46.927438 0.000000 -0.000000 0.000000 18.525789 -9.394891 34.818646 3.325480 1.952595 -14.018517 2.427269 3.458072 4.076328 -7.768582 19.579858 -19.279854 -5.821068 -0.211989 -15.671732 -10.802694 -29.960213 -0.576691 -76.982827 -22.753752 20.943525 62.998806 -60.052381 -66.576800 45.984835 -24.606895 -76.266387 17.776837 43.476445 11.153155 29.287341 33.616106 -14.048453 -29.796027 63.138753 -27.596510 -19.698257 16.296629 -24.904502 
1.125223 0.655226 0.494576 -86.423344 8.704865 119.953708 19.212102 25.383783 -103.412061 -5.511597 18.168521 119.876380 7.228672 6.383189 -57.976690 0.000000 -0.000000 0.000000 -19.192377 -42.505083 -92.915470 -13.621986 -31.106119 133.883363 -6.479434 14.092178 -45.754653 0.000000 -0.000000 0.000000 17.939478 -8.841081 33.595419 3.088062 1.752284 -14.041893 2.343134 3.508627 3.636882 -8.661423 19.585002 -21.635946 -5.306100 1.204435 -16.016271 -11.984686 -30.060446 0.047037 -76.125843 -22.565210 20.119676 61.140763 -60.139095 -65.527010 44.789296 -21.599729 -70.810255 19.028113 42.831054 12.247270 29.026823 33.347525 -15.111308 -28.514684 64.012394 -27.754834 -21.642323 15.627835 -23.542077 
1.126193 0.656811 0.515167 -86.475152 8.350883 121.021987 18.799468 24.637787 -102.346150 -5.783963 17.946788 116.535780 7.017025 7.140718 -57.064717 0.000000 -0.000000 0.000000 -17.925010 -41.074442 -92.920744 -13.179287 -32.130025 130.188521 -6.427750 12.518066 -44.448573 0.000000 -0.000000 0.000000 17.364796 -8.287674 32.230223 2.901413 1.572418 -14.032294 2.255450 3.550009 3.260521 -9.531885 19.331982 -24.068204 -4.811944 2.637702 -16.186577 -13.096567 -30.155925 0.815175 -75.215191 -22.367829 19.358122 58.809386 -60.404211 -64.323707 44.207869 -17.564422 -64.845565 20.210264 42.032787 13.246771 28.795721 33.029216 -16.061054 -26.619384 64.938657 -27.257582 -24.247710 14.609113 -22.434049 
